<?xml version="1.0" standalone="no"?>
<!DOCTYPE svg PUBLIC "-//W3C//DTD SVG 20010904//EN"
 "http://www.w3.org/TR/2001/REC-SVG-20010904/DTD/svg10.dtd">
<svg version="1.0" xmlns="http://www.w3.org/2000/svg"
 width="2568.000000pt" height="2568.000000pt" viewBox="0 0 2568.000000 2568.000000"
 preserveAspectRatio="xMidYMid meet">
<metadata>
Created by potrace 1.14, written by Peter Selinger 2001-2017
</metadata>
<g transform="translate(0.000000,2568.000000) scale(0.100000,-0.100000)"
fill="#000000" stroke="none">
<path d="M12458 25664 c-2 -1 -82 -5 -178 -9 -96 -4 -193 -8 -215 -10 -22 -1
-87 -6 -145 -9 -58 -4 -116 -9 -130 -11 -14 -2 -63 -7 -110 -10 -47 -3 -95 -7
-105 -9 -11 -2 -56 -7 -100 -10 -44 -4 -91 -9 -105 -11 -14 -2 -50 -7 -80 -10
-30 -3 -66 -8 -80 -10 -14 -2 -49 -7 -79 -10 -30 -4 -62 -8 -71 -10 -9 -2 -41
-6 -70 -10 -29 -4 -62 -9 -74 -11 -11 -2 -38 -6 -61 -9 -22 -3 -51 -8 -65 -10
-14 -3 -41 -7 -60 -10 -101 -16 -264 -46 -385 -70 -38 -8 -81 -16 -95 -19 -14
-2 -99 -21 -190 -41 -91 -20 -172 -38 -180 -40 -30 -6 -448 -115 -530 -139
-486 -137 -1060 -338 -1475 -517 -470 -202 -910 -415 -1215 -589 -36 -20 -72
-40 -80 -44 -36 -16 -368 -213 -524 -311 -414 -259 -967 -651 -1231 -873 -11
-9 -42 -35 -70 -56 -56 -45 -82 -67 -99 -81 -10 -9 -123 -105 -186 -158 -22
-18 -99 -86 -229 -202 -240 -213 -777 -754 -987 -995 -21 -24 -47 -54 -58 -65
-139 -151 -585 -704 -686 -851 -8 -12 -69 -97 -136 -190 -218 -305 -486 -717
-612 -944 -14 -25 -33 -57 -43 -72 -11 -14 -19 -29 -19 -32 0 -3 -18 -35 -40
-71 -22 -36 -40 -67 -40 -69 0 -2 -17 -35 -39 -73 -224 -398 -509 -1005 -695
-1483 -20 -52 -43 -111 -51 -130 -107 -270 -294 -844 -380 -1170 -14 -52 -29
-111 -35 -130 -33 -118 -107 -427 -126 -525 -2 -11 -15 -76 -30 -145 -14 -69
-28 -136 -30 -150 -2 -14 -7 -36 -9 -50 -14 -70 -66 -367 -71 -405 -3 -27 -19
-137 -29 -205 -2 -14 -6 -45 -10 -70 -5 -43 -9 -69 -20 -155 -3 -22 -7 -63
-10 -91 -2 -27 -8 -88 -14 -135 -5 -46 -13 -118 -16 -159 -4 -41 -8 -95 -10
-120 -2 -25 -7 -88 -10 -140 -4 -52 -8 -120 -10 -150 -25 -361 -25 -1111 0
-1490 3 -41 7 -113 10 -160 7 -99 14 -191 30 -350 3 -30 7 -78 10 -105 2 -28
6 -64 9 -80 3 -17 8 -57 11 -90 3 -33 8 -75 11 -92 2 -18 6 -48 8 -65 3 -18 8
-55 11 -83 3 -27 10 -75 15 -105 5 -30 12 -77 15 -105 4 -27 8 -57 10 -65 2
-8 7 -35 10 -60 3 -25 8 -52 10 -60 4 -16 14 -66 20 -110 2 -14 9 -50 15 -80
6 -30 13 -68 16 -85 11 -65 37 -187 70 -335 20 -85 37 -163 39 -173 2 -10 6
-26 9 -35 3 -9 7 -28 10 -42 3 -14 7 -34 10 -45 5 -17 14 -56 31 -125 122
-496 404 -1331 591 -1755 10 -22 18 -42 19 -45 0 -3 13 -31 28 -64 15 -32 27
-60 27 -62 0 -15 165 -366 284 -604 142 -284 234 -454 370 -688 39 -67 76
-130 81 -140 33 -57 58 -97 315 -502 14 -22 44 -67 67 -100 24 -33 43 -65 43
-69 0 -5 3 -11 8 -13 4 -2 27 -32 51 -68 48 -70 248 -347 266 -367 23 -28 32
-39 41 -54 5 -9 23 -34 39 -55 74 -94 359 -449 364 -454 3 -3 31 -34 61 -70
42 -50 214 -247 285 -326 5 -6 71 -76 145 -155 671 -713 1390 -1323 2218
-1882 78 -54 147 -97 151 -97 5 0 11 -3 13 -8 1 -4 39 -30 82 -57 112 -71 121
-76 353 -214 114 -68 229 -137 256 -153 26 -15 49 -28 51 -28 1 0 61 -32 132
-71 286 -156 707 -360 1024 -496 96 -41 189 -81 205 -88 17 -7 73 -29 125 -50
52 -20 104 -40 115 -45 51 -23 383 -143 565 -203 355 -119 607 -191 1010 -293
126 -31 511 -116 593 -129 18 -3 39 -8 48 -11 10 -2 30 -6 45 -9 16 -2 83 -13
149 -25 169 -30 163 -29 214 -36 25 -4 53 -8 61 -9 9 -2 43 -7 75 -11 33 -4
62 -9 65 -9 3 -1 32 -5 65 -9 33 -5 68 -10 77 -12 9 -1 48 -6 85 -9 37 -4 76
-9 85 -10 9 -2 48 -7 85 -10 37 -4 78 -8 90 -10 12 -2 59 -6 105 -10 46 -4 99
-8 118 -10 19 -2 82 -7 140 -10 58 -3 115 -8 126 -10 120 -19 1154 -28 1444
-12 259 14 294 17 355 22 33 3 87 7 120 10 33 3 83 7 110 10 28 3 73 7 100 10
28 3 70 7 95 10 25 3 68 7 95 10 50 6 257 33 305 40 14 2 45 6 70 10 67 10 86
13 195 31 55 9 114 18 130 20 17 3 53 9 80 15 28 5 59 11 70 13 32 5 98 18
120 22 24 5 34 7 155 32 52 12 120 26 150 32 92 19 501 120 574 141 38 12 77
22 87 24 124 24 920 286 1136 374 27 10 102 40 168 66 932 368 1895 895 2730
1495 181 130 461 343 580 442 229 188 298 247 395 332 114 100 150 132 284
256 203 188 177 162 421 412 238 243 349 362 480 513 38 44 74 85 80 91 5 6
28 32 50 59 22 26 47 55 56 64 8 9 53 63 100 121 46 58 86 107 90 110 23 22
320 411 441 580 112 157 293 427 393 585 49 77 102 163 120 190 17 28 65 106
105 175 40 69 86 146 101 173 16 26 29 49 29 52 0 2 15 30 34 62 18 32 48 85
66 118 52 94 301 590 347 690 23 50 55 119 71 155 155 340 343 820 466 1196
37 109 71 213 77 229 5 17 12 37 14 45 2 8 24 84 49 168 79 263 174 629 212
817 2 11 6 29 8 40 17 78 56 265 61 290 3 17 12 64 20 105 8 41 16 84 18 95 3
11 8 45 13 75 4 30 8 57 9 60 2 8 16 92 21 123 2 15 6 39 8 55 3 15 7 47 11
72 3 25 8 56 10 70 3 14 7 43 10 65 2 22 7 56 9 75 9 69 17 136 21 170 2 19 7
54 10 76 3 23 7 68 10 100 3 33 7 77 10 99 5 41 9 94 21 250 10 130 12 157 18
295 4 69 9 170 12 225 5 101 5 801 -1 930 -2 69 -12 250 -20 395 -3 41 -7 95
-10 120 -2 25 -7 83 -10 130 -3 47 -8 96 -10 110 -2 14 -7 56 -10 95 -3 38 -7
81 -10 95 -2 14 -7 52 -10 85 -3 33 -8 74 -10 90 -2 17 -7 53 -10 80 -3 28 -8
61 -10 75 -2 14 -11 75 -20 135 -23 157 -83 511 -94 554 -5 20 -12 53 -15 73
-3 21 -17 89 -31 152 -13 63 -26 125 -29 138 -2 13 -21 91 -41 173 -20 83 -38
159 -41 170 -40 190 -305 1060 -363 1190 -5 11 -23 61 -41 110 -17 50 -38 104
-45 120 -7 17 -16 41 -20 55 -4 14 -15 43 -25 65 -10 22 -36 87 -59 145 -24
58 -48 119 -56 135 -7 17 -34 80 -60 140 -138 319 -334 720 -510 1040 -71 131
-89 162 -123 220 -19 33 -43 74 -52 90 -149 258 -373 608 -558 875 -139 199
-434 589 -596 787 -39 48 -255 302 -282 333 -17 19 -55 62 -84 95 -282 318
-767 801 -1059 1055 -35 30 -71 62 -80 71 -19 19 -271 231 -324 274 -21 17
-44 35 -50 40 -80 71 -473 368 -662 501 -93 66 -419 286 -457 309 -38 23 -205
129 -228 144 -51 35 -370 221 -540 315 -483 268 -1240 616 -1700 781 -36 13
-123 44 -195 70 -171 61 -456 154 -625 204 -160 47 -421 120 -447 124 -10 2
-36 9 -58 15 -22 6 -51 13 -65 16 -14 3 -90 21 -170 40 -122 29 -215 49 -325
72 -11 2 -42 8 -70 14 -51 10 -58 12 -155 30 -65 13 -319 56 -372 64 -21 3
-55 8 -75 11 -21 3 -49 8 -63 10 -14 3 -47 7 -75 10 -27 3 -61 8 -75 10 -21 4
-164 21 -320 40 -25 3 -74 7 -110 10 -36 3 -83 7 -105 10 -39 4 -104 9 -235
20 -36 3 -105 7 -155 10 -49 2 -139 8 -200 11 -107 6 -952 14 -957 8z m-2198
-5227 c47 -9 117 -23 155 -32 39 -9 77 -18 85 -20 25 -5 173 -56 205 -70 61
-27 184 -84 310 -145 72 -34 186 -89 255 -122 294 -141 1211 -603 1525 -768
50 -26 140 -73 200 -105 61 -32 144 -76 185 -98 41 -22 113 -60 160 -85 47
-25 114 -61 150 -80 36 -19 173 -94 305 -165 132 -71 359 -196 505 -277 146
-81 288 -160 315 -175 28 -15 147 -83 265 -150 118 -67 236 -134 263 -148 115
-65 144 -81 169 -96 27 -17 141 -82 193 -111 59 -33 618 -362 654 -384 20 -13
56 -34 81 -48 90 -50 860 -514 998 -602 24 -15 58 -35 75 -45 36 -21 275 -170
647 -404 254 -160 283 -178 500 -319 63 -40 157 -101 208 -133 117 -75 1060
-703 1165 -776 43 -30 86 -58 95 -64 9 -5 19 -12 22 -15 3 -3 48 -37 100 -76
578 -431 950 -1082 1025 -1794 4 -36 9 -78 11 -95 5 -37 5 -347 0 -395 -2 -19
-7 -64 -10 -100 -4 -36 -11 -90 -16 -120 -5 -30 -12 -71 -15 -90 -3 -19 -13
-64 -21 -100 -9 -36 -17 -72 -19 -80 -23 -106 -129 -381 -203 -525 -142 -278
-402 -605 -617 -775 -22 -17 -42 -35 -45 -39 -25 -36 -881 -617 -1440 -979
-339 -219 -467 -300 -725 -463 -494 -311 -1088 -677 -1337 -824 -10 -5 -73
-43 -140 -84 -109 -65 -419 -249 -741 -437 -60 -35 -110 -64 -112 -64 -2 0
-24 -13 -48 -30 -25 -16 -47 -30 -50 -30 -3 0 -38 -19 -79 -43 -40 -24 -93
-55 -118 -69 -25 -14 -90 -51 -145 -83 -101 -59 -122 -70 -207 -118 -27 -15
-69 -39 -95 -54 -27 -14 -64 -35 -83 -46 -19 -11 -84 -47 -145 -82 -60 -34
-137 -77 -170 -95 -33 -18 -76 -42 -95 -53 -19 -11 -57 -32 -85 -47 -72 -39
-153 -84 -293 -162 -67 -37 -125 -68 -127 -68 -2 0 -30 -15 -62 -34 -32 -18
-92 -51 -133 -73 -41 -22 -106 -57 -145 -78 -38 -21 -106 -57 -150 -80 -44
-23 -147 -79 -230 -123 -161 -86 -259 -137 -480 -252 -77 -40 -155 -81 -172
-92 -18 -11 -33 -17 -33 -13 0 3 -12 -2 -27 -13 -16 -10 -80 -45 -143 -76
-678 -341 -1017 -508 -1220 -603 -41 -19 -140 -67 -220 -105 -80 -39 -167 -79
-195 -90 -136 -54 -329 -104 -470 -122 -113 -14 -153 -17 -281 -18 -576 -3
-1189 218 -1704 617 -182 140 -370 324 -502 490 -44 55 -88 109 -97 120 -9 11
-43 62 -76 113 -33 51 -70 109 -83 129 -107 166 -242 489 -301 721 -30 116
-55 261 -66 372 -3 30 -7 78 -10 105 -3 28 -7 91 -10 140 -3 50 -7 115 -10
145 -2 30 -7 96 -10 145 -3 50 -8 119 -10 155 -3 36 -7 106 -10 155 -3 50 -7
126 -10 170 -3 44 -7 118 -10 165 -3 47 -7 123 -10 170 -3 47 -7 130 -10 185
-2 55 -7 152 -10 215 -4 63 -8 158 -10 210 -2 52 -7 147 -9 210 -3 63 -8 180
-11 260 -3 80 -8 199 -10 265 -27 700 -39 1414 -38 2365 0 995 10 1630 38
2380 19 497 22 580 30 735 3 66 8 165 10 220 7 140 17 323 40 735 3 47 7 117
10 155 3 39 7 111 10 160 8 126 14 208 20 295 3 41 8 107 11 145 15 213 21
271 36 365 5 36 12 79 14 95 17 107 100 385 149 500 39 92 59 134 97 210 388
769 1151 1371 1988 1569 98 23 134 30 220 42 19 2 58 8 85 12 82 14 479 6 575
-11z"/>
<path d="M9487 17864 c-1 -1 -31 -5 -67 -8 -386 -40 -725 -250 -866 -535 -29
-59 -72 -203 -72 -241 0 -8 -3 -55 -6 -105 -4 -49 -9 -124 -11 -165 -3 -41 -7
-102 -10 -135 -3 -33 -7 -94 -10 -135 -3 -41 -7 -100 -10 -130 -2 -30 -7 -95
-10 -145 -3 -49 -7 -112 -10 -140 -2 -27 -7 -90 -11 -140 -3 -49 -7 -110 -9
-135 -2 -25 -6 -90 -9 -145 -4 -55 -8 -120 -11 -145 -2 -25 -7 -83 -10 -130
-13 -184 -17 -247 -30 -420 -21 -281 -23 -321 -30 -450 -4 -63 -8 -131 -10
-150 -2 -20 -7 -101 -10 -180 -3 -80 -8 -174 -10 -210 -27 -463 -27 -1649 0
-2280 11 -274 16 -379 20 -415 2 -22 7 -94 10 -160 3 -66 8 -138 10 -160 2
-22 6 -78 9 -125 9 -122 17 -236 21 -300 3 -30 7 -93 10 -140 7 -129 14 -228
20 -295 3 -33 7 -96 10 -140 6 -91 14 -207 20 -280 2 -27 7 -95 10 -150 3 -55
8 -122 10 -150 2 -27 7 -90 10 -140 3 -49 7 -112 10 -140 2 -27 7 -93 10 -145
3 -52 8 -122 10 -155 3 -33 7 -100 10 -150 11 -189 39 -288 114 -411 131 -212
357 -365 656 -443 222 -59 512 -44 739 36 114 40 631 299 726 363 8 6 22 13
30 17 74 33 513 322 684 450 155 117 368 288 437 353 8 8 56 51 104 95 172
155 391 380 530 545 44 52 86 101 94 109 18 19 167 212 209 270 83 116 248
370 312 482 60 104 245 462 247 479 0 3 8 23 18 45 21 51 97 243 100 255 0 3
11 31 23 64 12 32 32 90 43 130 12 39 30 103 41 141 19 66 71 282 83 342 10
56 37 219 41 253 2 19 6 55 10 79 6 52 11 112 19 236 7 95 7 446 1 505 -2 19
-7 71 -10 115 -7 77 -9 99 -21 195 -6 45 -22 148 -29 185 -6 34 -19 100 -22
110 -1 6 -4 21 -7 35 -3 14 -15 66 -27 115 -12 50 -23 98 -25 107 -21 100
-139 436 -222 631 -189 447 -534 994 -864 1369 -13 15 -49 56 -79 91 -67 79
-438 449 -535 534 -219 192 -422 351 -710 553 -314 221 -960 576 -1205 662
-81 28 -205 56 -285 63 -64 6 -204 12 -208 9z"/>
</g>
</svg>
